# Blender 3.6.3
# www.blender.org
mtllib Cylinder.mtl
o Cylinder.001
v 0.000000 240.000076 -629.999939
v 122.906883 66.568375 -617.894714
v 0.000000 66.568375 -630.000000
v 122.906883 240.000076 -617.894653
v 241.090561 66.568375 -582.044128
v 241.090561 240.000015 -582.044067
v 350.009277 66.568329 -523.825806
v 350.009277 240.000015 -523.825806
v 445.477264 66.568336 -445.477264
v 445.477264 240.000031 -445.477295
v 523.825867 66.568344 -350.009216
v 523.825867 240.000031 -350.009247
v 582.044128 66.568352 -241.090561
v 582.044128 239.999985 -241.090576
v 617.894714 66.568283 -122.906952
v 617.894714 239.999985 -122.906898
v 630.000000 66.568291 -0.000060
v 630.000000 240.000000 -0.000018
v 617.894714 66.568298 122.906807
v 617.894714 240.000015 122.906868
v 582.044128 66.568253 241.090454
v 582.044128 239.999954 241.090500
v 523.825867 66.568260 350.009216
v 523.825867 239.999969 350.009247
v 445.477264 66.568268 445.477264
v 445.477264 239.999969 445.477295
v 350.009216 66.568275 523.825867
v 350.009216 239.999985 523.825989
v 241.090454 66.568222 582.044189
v 241.090454 239.999924 582.044189
v 122.906754 66.568222 617.894714
v 122.906754 239.999924 617.894775
v -0.000180 66.568222 630.000000
v -0.000180 239.999924 630.000061
v -122.907188 66.568222 617.894653
v -122.907188 239.999924 617.894714
v -241.090851 66.568222 582.044006
v -241.090851 239.999924 582.044067
v -350.009583 66.568275 523.825684
v -350.009583 239.999985 523.825745
v -445.477539 66.568268 445.477020
v -445.477539 239.999969 445.476990
v -523.826111 66.568260 350.008850
v -523.826111 239.999969 350.008820
v -582.044312 66.568253 241.090073
v -582.044312 239.999954 241.090057
v -617.894836 66.568298 122.906334
v -617.894836 240.000015 122.906387
v -630.000000 66.568291 -0.000600
v -630.000000 240.000000 -0.000558
v -617.894653 66.568283 -122.907555
v -617.894653 239.999985 -122.907501
v -582.043823 66.568352 -241.091217
v -582.043823 239.999985 -241.091232
v -523.825439 66.568344 -350.009888
v -523.825439 240.000031 -350.009918
v -445.476715 66.568336 -445.477875
v -445.476715 240.000031 -445.477905
v -350.008575 66.568329 -523.826355
v -350.008575 240.000015 -523.826294
v -241.089706 66.568375 -582.044434
v -241.089706 240.000015 -582.044373
v -122.905983 66.568375 -617.894897
v -122.905983 240.000076 -617.894836
vn -0.0980 -0.0000 0.9952
vn -0.2903 -0.0000 0.9569
vn -0.4714 -0.0000 0.8819
vn -0.6344 -0.0000 0.7730
vn -0.7730 -0.0000 0.6344
vn -0.8819 -0.0000 0.4714
vn -0.9569 -0.0000 0.2903
vn -0.9952 -0.0000 0.0980
vn -0.9952 -0.0000 -0.0980
vn -0.9569 -0.0000 -0.2903
vn -0.8819 -0.0000 -0.4714
vn -0.7730 -0.0000 -0.6344
vn -0.6344 -0.0000 -0.7730
vn -0.4714 -0.0000 -0.8819
vn -0.2903 -0.0000 -0.9569
vn -0.0980 -0.0000 -0.9952
vn 0.0980 -0.0000 -0.9952
vn 0.2903 -0.0000 -0.9569
vn 0.4714 -0.0000 -0.8819
vn 0.6344 -0.0000 -0.7730
vn 0.7730 -0.0000 -0.6344
vn 0.8819 -0.0000 -0.4714
vn 0.9569 -0.0000 -0.2903
vn 0.9952 -0.0000 -0.0980
vn 0.9952 -0.0000 0.0980
vn 0.9569 -0.0000 0.2903
vn 0.8819 -0.0000 0.4714
vn 0.7730 -0.0000 0.6344
vn 0.6344 -0.0000 0.7730
vn 0.4714 -0.0000 0.8819
vn 0.2903 -0.0000 0.9569
vn 0.0980 -0.0000 0.9952
vn -0.0000 1.0000 -0.0000
vn -0.0000 -1.0000 -0.0000
s 1
usemtl None
f 1//1 3//1 2//1
f 4//2 2//2 5//2
f 6//3 5//3 7//3
f 8//4 7//4 9//4
f 10//5 9//5 11//5
f 12//6 11//6 13//6
f 14//7 13//7 15//7
f 16//8 15//8 17//8
f 18//9 17//9 19//9
f 20//10 19//10 21//10
f 22//11 21//11 23//11
f 24//12 23//12 25//12
f 26//13 25//13 27//13
f 28//14 27//14 29//14
f 30//15 29//15 31//15
f 32//16 31//16 33//16
f 34//17 33//17 35//17
f 36//18 35//18 37//18
f 38//19 37//19 39//19
f 40//20 39//20 41//20
f 42//21 41//21 43//21
f 44//22 43//22 45//22
f 46//23 45//23 47//23
f 48//24 47//24 49//24
f 50//25 49//25 51//25
f 52//26 51//26 53//26
f 54//27 53//27 55//27
f 56//28 55//28 57//28
f 58//29 57//29 59//29
f 60//30 59//30 61//30
f 62//31 61//31 63//31
f 64//32 63//32 3//32
f 15//33 47//33 31//33
f 1//1 2//1 4//1
f 4//2 5//2 6//2
f 6//3 7//3 8//3
f 8//4 9//4 10//4
f 10//5 11//5 12//5
f 12//6 13//6 14//6
f 14//7 15//7 16//7
f 16//8 17//8 18//8
f 18//9 19//9 20//9
f 20//10 21//10 22//10
f 22//11 23//11 24//11
f 24//12 25//12 26//12
f 26//13 27//13 28//13
f 28//14 29//14 30//14
f 30//15 31//15 32//15
f 32//16 33//16 34//16
f 34//17 35//17 36//17
f 36//18 37//18 38//18
f 38//19 39//19 40//19
f 40//20 41//20 42//20
f 42//21 43//21 44//21
f 44//22 45//22 46//22
f 46//23 47//23 48//23
f 48//24 49//24 50//24
f 50//25 51//25 52//25
f 52//26 53//26 54//26
f 54//27 55//27 56//27
f 56//28 57//28 58//28
f 58//29 59//29 60//29
f 60//30 61//30 62//30
f 30//34 26//34 28//34
f 62//31 63//31 64//31
f 64//32 3//32 1//32
f 63//33 2//33 3//33
f 2//33 7//33 5//33
f 7//33 11//33 9//33
f 11//33 7//33 13//33
f 13//33 7//33 15//33
f 15//33 19//33 17//33
f 19//33 15//33 21//33
f 21//33 15//33 23//33
f 23//33 31//33 25//33
f 25//33 31//33 27//33
f 27//33 31//33 29//33
f 31//33 35//33 33//33
f 35//33 39//33 37//33
f 39//33 43//33 41//33
f 43//33 47//33 45//33
f 47//33 51//33 49//33
f 51//33 55//33 53//33
f 55//33 63//33 57//33
f 57//33 63//33 59//33
f 59//33 63//33 61//33
f 63//33 7//33 2//33
f 31//33 47//33 35//33
f 35//33 47//33 39//33
f 39//33 47//33 43//33
f 47//33 63//33 51//33
f 51//33 63//33 55//33
f 63//33 15//33 7//33
f 15//33 31//33 23//33
f 63//33 47//33 15//33
