# Blender 3.3.1
# www.blender.org
mtllib RedFlag.mtl
o objFlag
v -0.379542 24.816277 0.049235
v 0.239153 24.816278 0.242133
v -0.253794 -0.621934 0.236459
v 0.361525 -0.621934 0.068658
v -0.169652 -0.621934 -0.328112
v 0.152752 24.816259 -0.325006
v 1.982440 16.798903 -2.306444
v 2.236691 14.912252 -0.148084
v 2.728332 13.944013 0.290646
v 4.904327 12.244905 0.091308
v 7.031985 10.668653 0.070180
v 0.677577 18.322435 -1.569639
v 1.373507 18.118858 -1.979226
v 2.250188 16.411083 -0.064320
v 3.167541 14.672341 0.473227
v 2.278598 18.083313 -1.336953
v 3.126719 16.175936 0.661533
v 1.079568 20.090586 -1.328404
v 1.757247 19.607439 -1.242837
v 2.230022 17.830437 0.187272
v 3.065152 17.439924 0.758081
v 5.391146 15.309878 -0.019245
v 2.138033 19.100185 0.282225
v 2.774235 18.559975 0.713802
v 5.276863 17.322392 -0.108258
v 0.831028 22.219973 -0.576384
v 1.421954 21.257393 -0.694334
v 2.857049 19.597929 0.776748
v 1.927726 20.582731 0.333396
v 2.588290 20.971302 0.647014
v 7.541694 15.641015 -0.003897
v 1.861737 22.269499 0.530372
v 4.951535 19.185566 -0.158776
v 11.435207 16.732834 0.023822
v 0.343315 24.298941 0.038574
v 1.448452 23.423185 0.240305
v 3.773238 21.479813 -0.160941
v 0.376709 16.983425 -1.363195
v 1.175494 16.903357 -2.183369
v 2.595330 16.308496 -1.833104
v 2.250273 15.438967 0.006849
v 3.164731 14.668627 0.568574
v 0.413162 19.864637 -0.767370
v 0.992924 19.865175 -1.296654
v 1.693202 19.290775 -1.386946
v 2.275788 18.079597 -1.241607
v 2.258629 16.621277 0.151813
v 3.123909 16.172220 0.756880
v 9.827212 14.497108 0.011459
v 2.227212 17.826721 0.282618
v 3.062342 17.436209 0.853427
v 5.388337 15.306165 0.076101
v 0.515913 20.719576 -0.709451
v 2.135223 19.096470 0.377572
v 2.771425 18.556259 0.809148
v 5.274053 17.318676 -0.012911
v 1.419144 21.253677 -0.598988
v 2.854239 19.594213 0.872095
v 0.884372 22.385160 -0.417864
v 1.924916 20.579016 0.428742
v 2.585480 20.967587 0.742361
v 7.538884 15.637300 0.091449
v 0.366120 22.430292 0.009477
v 1.858927 22.265783 0.625718
v 4.948724 19.181850 -0.063430
v 1.445642 23.419470 0.335651
v 3.770428 21.476097 -0.065595
v 6.800822 20.093033 0.047727
v 1.826878 23.602793 -0.096168
vn -0.5395 -0.5610 -0.6279
vn 0.8214 -0.5556 -0.1291
vn -0.3253 -0.5613 0.7610
vn 0.3158 0.5603 0.7657
vn 0.5490 0.5623 -0.6184
vn -0.8169 0.5554 -0.1557
vn -0.5332 -0.8147 0.2279
vn 0.3099 0.9506 0.0172
vn -0.6282 0.2049 -0.7506
vn -0.0425 0.3653 -0.9299
vn -0.5539 -0.7706 -0.3154
vn 0.4520 -0.7442 -0.4918
vn 0.0278 -0.1603 0.9867
vn 0.9161 0.2637 -0.3021
vn 0.9410 0.0331 -0.3367
vn -0.6058 -0.4007 -0.6873
vn 0.1652 0.0799 -0.9830
vn 0.1721 0.0853 -0.9814
vn -0.2108 0.3973 -0.8932
vn 0.6956 0.3005 -0.6526
vn 0.8962 0.1171 -0.4279
vn 0.1130 0.0797 -0.9904
vn 0.8492 0.1692 -0.5003
vn 0.4585 0.0794 -0.8852
vn -0.1418 -0.0373 -0.9892
vn -0.1149 -0.0191 -0.9932
vn 0.0178 -0.0084 -0.9998
vn -0.1359 0.5463 -0.8265
vn 0.5655 0.1955 -0.8012
vn 0.7671 0.1168 -0.6309
vn 0.0290 -0.0209 -0.9994
vn -0.1338 -0.0262 -0.9907
vn 0.1884 -0.0823 -0.9786
vn -0.0683 -0.0990 -0.9927
vn -0.1751 -0.0583 -0.9828
vn 0.7575 0.6497 0.0636
vn -0.9256 0.0661 0.3726
vn -0.4221 0.9029 -0.0806
vn -0.0342 -0.2507 -0.9674
vn 0.9820 0.1887 -0.0024
vn -0.7969 -0.5715 -0.1956
vn -0.4818 -0.8762 -0.0137
vn 0.1503 -0.9886 0.0112
vn 0.8070 -0.5904 -0.0176
vn 0.2744 0.7274 -0.6289
vn -0.1937 -0.1363 0.9716
vn -0.9267 -0.0349 0.3742
vn 0.2613 -0.2673 0.9275
vn -0.4862 -0.2967 0.8219
vn -0.8747 -0.2310 0.4262
vn -0.1566 -0.1069 0.9819
vn -0.9296 -0.0722 0.3615
vn -0.1047 -0.0780 0.9914
vn -0.9119 -0.0807 0.4024
vn 0.6294 -0.2331 0.7413
vn -0.4647 -0.0823 0.8817
vn -0.8630 -0.1262 0.4893
vn 0.1678 0.0432 0.9849
vn 0.1217 -0.0012 0.9926
vn 0.0067 0.0033 1.0000
vn -0.7457 -0.1035 0.6582
vn -0.6161 -0.3463 0.7075
vn -0.0364 0.0152 0.9992
vn 0.1768 0.0459 0.9832
vn -0.0097 -0.3893 0.9210
vn 0.0529 0.0928 0.9943
vn -0.1985 0.1438 0.9695
vn 0.2148 0.1177 0.9695
vn 0.2446 0.2932 0.9242
vt 0.617675 0.137437
vt 0.275144 1.795366
vt 0.405782 0.059945
vt 0.623316 1.795366
vt 0.595671 0.940399
vt 0.375677 -0.795366
vt 0.384115 0.870518
vt 0.714988 -0.795366
vt 0.561019 0.725602
vt 0.979359 -0.795366
vt 0.090417 -0.795366
vt 0.438667 0.275861
vt 0.911986 1.795366
vt 0.017137 1.795366
vt 0.323116 0.259355
vt 0.496864 0.270079
vt 0.560721 0.251038
vt 0.716091 0.254644
vt 0.853764 0.251078
vt 0.234673 0.352110
vt 0.278894 0.344351
vt 0.444184 0.352256
vt 0.557077 0.319761
vt 0.339125 0.381574
vt 0.506706 0.399620
vt 0.234673 0.483987
vt 0.278894 0.467376
vt 0.402434 0.441334
vt 0.459153 0.468883
vt 0.636002 0.452069
vt 0.358169 0.510926
vt 0.411558 0.520211
vt 0.562799 0.560598
vt 0.190453 0.636000
vt 0.237218 0.586689
vt 0.383180 0.580242
vt 0.303372 0.595486
vt 0.331445 0.651630
vt 0.708962 0.556434
vt 0.257481 0.699870
vt 0.489760 0.657147
vt 0.853746 0.798665
vt 0.146231 0.786026
vt 0.210707 0.759079
vt 0.364937 0.742442
vt 0.217015 0.259301
vt 0.278894 0.253617
vt 0.376159 0.259972
vt 0.483268 0.304517
vt 0.557077 0.319761
vt 0.190418 0.462917
vt 0.234673 0.466451
vt 0.278894 0.439071
vt 0.339125 0.381574
vt 0.443506 0.373248
vt 0.506706 0.399620
vt 0.830126 0.557197
vt 0.402434 0.441334
vt 0.459153 0.468883
vt 0.636003 0.452069
vt 0.190453 0.525643
vt 0.358169 0.510926
vt 0.411558 0.520211
vt 0.562799 0.560598
vt 0.237218 0.586689
vt 0.383180 0.580242
vt 0.190453 0.649386
vt 0.303372 0.595486
vt 0.331445 0.651630
vt 0.708962 0.556434
vt 0.146231 0.649629
vt 0.257481 0.699870
vt 0.489760 0.657147
vt 0.210707 0.759079
vt 0.364937 0.742442
vt 0.564686 0.790658
vt 0.223141 0.799055
s 1
usemtl lambert2SG
f 2/3/1 1/1/2 6/12/3
f 5/9/4 3/5/5 4/7/6
f 2/4/1 3/6/5 1/2/2
f 6/13/3 5/10/4 4/8/6
f 6/13/3 4/8/6 2/4/1
f 2/4/1 4/8/6 3/6/5
f 1/2/2 3/6/5 5/11/4
f 6/14/3 1/2/2 5/11/4
usemtl マテリアル
f 38/46/7 43/51/8 12/20/9
f 38/46/7 12/20/9 13/21/10
f 39/47/11 13/21/10 7/15/12
f 40/48/13 16/24/14 14/22/15
f 8/16/16 17/25/17 15/23/18
f 12/20/9 18/26/19 19/27/20
f 13/21/10 19/27/20 16/24/14
f 14/22/15 20/28/21 21/29/22
f 14/22/15 21/29/22 17/25/17
f 20/28/21 23/31/23 24/32/24
f 20/28/21 24/32/24 21/29/22
f 17/25/17 21/29/22 25/33/25
f 17/25/17 25/33/25 22/30/26
f 22/30/26 25/33/25 31/39/27
f 43/51/8 26/34/28 27/35/29
f 19/27/20 27/35/29 29/37/30
f 23/31/23 29/37/30 28/36/31
f 23/31/23 28/36/31 24/32/24
f 21/29/22 28/36/31 33/41/32
f 21/29/22 33/41/32 25/33/25
f 25/33/25 33/41/32 31/39/27
f 29/37/30 32/40/33 30/38/34
f 30/38/34 37/45/35 33/41/32
f 33/41/32 68/76/36 31/39/27
f 63/71/37 35/43/38 36/44/39
f 26/34/28 36/44/39 32/40/33
f 32/40/33 36/44/39 37/45/35
f 34/42/40 31/39/27 68/76/36
f 38/46/7 13/21/10 39/47/11
f 40/48/13 14/22/15 8/16/16
f 8/16/16 15/23/18 9/17/41
f 9/17/41 15/23/18 10/18/42
f 10/18/42 22/30/26 11/19/43
f 7/15/12 16/24/14 40/48/13
f 15/23/18 22/30/26 10/18/42
f 22/30/26 31/39/27 11/19/43
f 13/21/10 16/24/14 7/15/12
f 14/22/15 17/25/17 8/16/16
f 31/39/27 49/57/44 11/19/43
f 43/51/8 18/26/19 12/20/9
f 12/20/9 19/27/20 13/21/10
f 16/24/14 20/28/21 14/22/15
f 17/25/17 22/30/26 15/23/18
f 19/27/20 23/31/23 16/24/14
f 16/24/14 23/31/23 20/28/21
f 63/71/37 26/34/28 43/51/8
f 43/51/8 27/35/29 18/26/19
f 18/26/19 27/35/29 19/27/20
f 19/27/20 29/37/30 23/31/23
f 24/32/24 28/36/31 21/29/22
f 29/37/30 30/38/34 28/36/31
f 26/34/28 32/40/33 27/35/29
f 27/35/29 32/40/33 29/37/30
f 30/38/34 33/41/32 28/36/31
f 63/71/37 36/44/39 26/34/28
f 32/40/33 37/45/35 30/38/34
f 31/39/27 34/42/40 49/57/44
f 37/45/35 68/76/36 33/41/32
f 35/43/38 69/77/45 36/44/39
f 36/44/39 69/77/45 37/45/35
f 37/45/35 69/77/45 68/76/36
f 8/16/16 42/50/46 41/49/47
f 38/46/7 44/52/48 43/51/8
f 38/46/7 45/53/49 44/52/48
f 39/47/11 46/54/50 45/53/49
f 41/49/47 48/56/51 47/55/52
f 41/49/47 42/50/46 48/56/51
f 47/55/52 51/59/53 50/58/54
f 47/55/52 48/56/51 51/59/53
f 43/51/8 44/52/48 53/61/55
f 50/58/54 55/63/56 54/62/57
f 50/58/54 51/59/53 55/63/56
f 48/56/51 56/64/58 51/59/53
f 48/56/51 52/60/59 56/64/58
f 52/60/59 62/70/60 56/64/58
f 45/53/49 60/68/61 57/65/62
f 54/62/57 58/66/63 60/68/61
f 54/62/57 55/63/56 58/66/63
f 51/59/53 65/73/64 58/66/63
f 51/59/53 56/64/58 65/73/64
f 53/61/55 57/65/62 59/67/65
f 56/64/58 62/70/60 65/73/64
f 60/68/61 61/69/66 64/72/67
f 61/69/66 65/73/64 67/75/68
f 65/73/64 62/70/60 68/76/36
f 63/71/37 66/74/69 35/43/38
f 59/67/65 64/72/67 66/74/69
f 64/72/67 67/75/68 66/74/69
f 34/42/40 68/76/36 62/70/60
f 40/48/13 8/16/16 41/49/47
f 8/16/16 9/17/41 42/50/46
f 9/17/41 10/18/42 42/50/46
f 10/18/42 11/19/43 52/60/59
f 7/15/12 40/48/13 46/54/50
f 42/50/46 10/18/42 52/60/59
f 52/60/59 11/19/43 62/70/60
f 38/46/7 39/47/11 45/53/49
f 39/47/11 7/15/12 46/54/50
f 46/54/50 40/48/13 47/55/52
f 40/48/13 41/49/47 47/55/52
f 62/70/60 11/19/43 49/57/44
f 46/54/50 47/55/52 50/58/54
f 48/56/51 42/50/46 52/60/59
f 63/71/37 43/51/8 53/61/55
f 45/53/49 46/54/50 54/62/57
f 46/54/50 50/58/54 54/62/57
f 53/61/55 44/52/48 57/65/62
f 44/52/48 45/53/49 57/65/62
f 45/53/49 54/62/57 60/68/61
f 55/63/56 51/59/53 58/66/63
f 63/71/37 53/61/55 59/67/65
f 60/68/61 58/66/63 61/69/66
f 59/67/65 57/65/62 64/72/67
f 57/65/62 60/68/61 64/72/67
f 61/69/66 58/66/63 65/73/64
f 63/71/37 59/67/65 66/74/69
f 64/72/67 61/69/66 67/75/68
f 62/70/60 49/57/44 34/42/40
f 67/75/68 65/73/64 68/76/36
f 35/43/38 66/74/69 69/77/45
f 66/74/69 67/75/68 69/77/45
f 67/75/68 68/76/36 69/77/45
