# Blender 3.3.1
# www.blender.org
mtllib Wall.mtl
o Cube
v -0.120207 1.000000 -1.000000
v -0.120207 -1.000000 -1.000000
v -0.120207 1.000000 1.000000
v -0.120207 -1.000000 1.000000
v -1.000000 1.000000 -1.000000
v -1.000000 -1.000000 -1.000000
v -1.000000 1.000000 1.000000
v -1.000000 -1.000000 1.000000
v -0.120207 -0.000169 -1.000000
v -1.000000 -0.000169 1.000000
v -0.120207 -0.000169 1.000000
v -1.000000 -0.000169 -1.000000
v -0.560104 -1.000000 -1.000000
v -0.560104 1.000000 1.000000
v -0.560104 -1.000000 1.000000
v -0.560104 1.000000 -1.000000
v -0.560104 -0.000169 -1.000000
v -0.120207 1.000000 1.198248
v -0.120207 -1.000000 1.198248
v -1.000000 1.000000 1.198248
v -1.000000 -1.000000 1.198248
v -1.000000 -0.000169 1.198248
v -0.120207 -0.000169 1.198248
v -0.560104 1.000000 1.198248
v -0.560104 -1.000000 1.198248
v -0.560104 -0.000169 1.198248
vn -0.0000 1.0000 -0.0000
vn 1.0000 -0.0000 -0.0000
vn -1.0000 -0.0000 -0.0000
vn -0.0000 -1.0000 -0.0000
vn -0.0000 -0.0000 -1.0000
vn -0.0000 -0.0000 1.0000
vt 0.695013 0.429987
vt 0.304987 0.429987
vt 0.695013 0.820013
vt 0.304987 0.820013
vt 0.875000 0.500000
vt 0.625000 0.250000
vt 0.375000 0.250000
vt 0.125000 0.500000
vt 0.625000 0.000000
vt 0.875000 0.750000
vt 0.375000 0.000000
vt 0.125000 0.750000
vt 0.499969 0.429987
vt 0.499979 0.000000
vt 0.499969 0.820013
vt 0.499977 0.250000
vt 0.339994 0.339994
vt 0.214994 0.464994
vt 0.785006 0.785006
vt 0.214994 0.785006
vt 0.660006 0.339994
vt 0.785006 0.464994
vt 0.499973 0.339994
vt 0.695013 0.820013
vt 0.304987 0.820013
vt 0.625000 1.000000
vt 0.625000 0.000000
vt 0.875000 0.750000
vt 0.125000 0.750000
vt 0.375000 0.000000
vt 0.375000 1.000000
vt 0.499975 1.000000
vt 0.499979 0.000000
vt 0.499969 0.820013
vt 0.660006 0.910006
vt 0.785006 0.785006
vt 0.339994 0.910006
vt 0.214994 0.785006
vt 0.499972 0.910006
s 0
usemtl Material
f 16/22/1 5/5/1 7/10/1 14/19/1
f 11/15/2 3/3/2 18/24/2 23/34/2
f 10/14/3 7/9/3 5/6/3 12/16/3
f 13/18/4 2/2/4 4/4/4 15/20/4
f 9/13/2 1/1/2 3/3/2 11/15/2
f 17/23/5 16/21/5 1/1/5 9/13/5
f 13/17/5 17/23/5 9/13/5 2/2/5
f 2/2/2 9/13/2 11/15/2 4/4/2
f 8/11/3 10/14/3 12/16/3 6/7/3
f 8/12/4 15/20/4 25/38/4 21/29/4
f 10/14/3 8/11/3 21/30/3 22/33/3
f 6/7/5 12/16/5 17/23/5 13/17/5
f 12/16/5 5/6/5 16/21/5 17/23/5
f 6/8/4 13/18/4 15/20/4 8/12/4
f 4/4/2 11/15/2 23/34/2 19/25/2
f 1/1/1 16/22/1 14/19/1 3/3/1
f 26/39/6 24/35/6 20/26/6 22/32/6
f 25/37/6 26/39/6 22/32/6 21/31/6
f 19/25/6 23/34/6 26/39/6 25/37/6
f 23/34/6 18/24/6 24/35/6 26/39/6
f 7/9/3 10/14/3 22/33/3 20/27/3
f 3/3/1 14/19/1 24/36/1 18/24/1
f 15/20/4 4/4/4 19/25/4 25/38/4
f 14/19/1 7/10/1 20/28/1 24/36/1
